<svg width="75.753174" height="71.855713" viewBox="0 0 75.7532 71.8557" fill="none" xmlns="http://www.w3.org/2000/svg" xmlns:xlink="http://www.w3.org/1999/xlink">
	<desc>
			Created with Pixso.
	</desc>
	<defs/>
	<path id="Vector" d="M67.3059 27.5171C64.9109 27.5171 62.8032 28.5114 61.2546 30.0668C55.5547 26.106 47.8748 23.5564 39.3647 23.2837L43.7874 3.27124L57.8696 6.44629C57.8696 9.91003 60.6797 12.7323 64.1284 12.7323C67.6411 12.7323 70.4673 9.82983 70.4673 6.36609C70.4673 2.90247 67.6572 0 64.1284 0C61.6697 0 59.5461 1.49133 58.4924 3.52783L42.9412 0.0640869C42.1587 -0.144287 41.3923 0.41687 41.1848 1.20264L36.3311 23.2677C27.8848 23.6205 20.2849 26.1702 14.5688 30.131C13.02 28.5114 10.8328 27.5171 8.43774 27.5171C-0.439453 27.5171 -3.34546 39.4797 4.78149 43.5688C4.49414 44.8356 4.36646 46.1826 4.36646 47.5297C4.36646 60.9675 19.4387 71.8557 37.9436 71.8557C56.5286 71.8557 71.6008 60.9675 71.6008 47.5297C71.6008 46.1826 71.457 44.7715 71.106 43.5046C79.073 39.3995 76.1353 27.5171 67.3059 27.5171ZM17.6663 44.4187C17.6663 40.8909 20.4766 38.0526 24.0051 38.0526C27.4539 38.0526 30.2639 40.8749 30.2639 44.4187C30.2639 47.8824 27.4539 50.7047 24.0051 50.7047C20.4924 50.7207 17.6663 47.8824 17.6663 44.4187ZM51.8823 59.412C46.0706 65.249 29.6731 65.249 23.8613 59.412C23.2227 58.8508 23.2227 57.8566 23.8613 57.2151C24.4202 56.6539 25.4102 56.6539 25.969 57.2151C30.4075 61.7853 45.1284 61.8655 49.7588 57.2151C50.3176 56.6539 51.3076 56.6539 51.8665 57.2151C52.521 57.8566 52.521 58.8508 51.8823 59.412ZM51.7546 50.7207C48.3059 50.7207 45.4958 47.8984 45.4958 44.4347C45.4958 40.9069 48.3059 38.0686 51.7546 38.0686C55.2671 38.0686 58.0933 40.8909 58.0933 44.4347C58.0774 47.8824 55.2671 50.7207 51.7546 50.7207Z" fill="#737373" fill-opacity="1.000000" fill-rule="nonzero"/>
</svg>
