<svg width="103.677734" height="61.746094" viewBox="0 0 103.678 61.7461" fill="none" xmlns="http://www.w3.org/2000/svg" xmlns:xlink="http://www.w3.org/1999/xlink">
	<desc>
			Created with Pixso.
	</desc>
	<defs/>
	<path id="Vector" d="M29.2256 22.3632C29.1089 26.0013 30.9429 27.6123 30.988 28.6355C30.9666 28.8438 30.895 29.0438 30.7793 29.219C30.6638 29.3943 30.5076 29.5394 30.324 29.6426L28.2505 31.0818C27.9822 31.2683 27.6658 31.3752 27.3384 31.3901C27.2688 31.387 26.0117 31.6841 24.0208 27.2766C22.8062 28.78 21.2607 29.9878 19.5027 30.8077C17.7446 31.6277 15.8208 32.0378 13.8784 32.007C11.241 32.1499 4.09399 30.5228 4.46167 22.9784C4.2041 16.8298 9.97925 13.0103 15.9519 13.333C17.1021 13.3363 19.4509 13.3925 23.564 14.3402L23.564 11.8313C23.9998 7.58118 21.1826 4.28357 16.3049 4.77832C15.9163 4.77991 13.1624 4.698 8.87915 6.40222C7.68701 6.94507 7.53467 6.85522 7.1377 6.85522C5.9375 6.85522 6.4314 3.40503 6.66162 2.96814C7.50562 1.94019 12.4707 0.020752 17.3433 0.0479736C20.6016 -0.237671 23.842 0.759399 26.3647 2.82361C27.3904 3.96094 28.1726 5.29248 28.6646 6.73804C29.1565 8.18347 29.3479 9.71289 29.2273 11.2338L29.2256 22.3632ZM15.2261 27.5658C20.4795 27.4902 22.7039 24.3582 23.2107 22.6716C23.6094 21.0574 23.543 20.0358 23.543 18.2705C21.9763 17.8979 19.7214 17.4916 17.1345 17.4883C14.6802 17.3052 10.1978 18.3926 10.3728 22.67C10.1719 25.3668 12.1741 27.7135 15.2261 27.5658ZM42.9141 31.2681C41.6409 31.3838 41.0479 30.4874 40.8601 29.6024L32.7927 3.15601C32.6355 2.70947 32.532 2.24854 32.4817 1.77795C32.4519 1.58386 32.501 1.38611 32.6184 1.22803C32.7356 1.06982 32.9114 0.964355 33.1069 0.934692C33.1458 0.928223 32.762 0.934692 36.7114 0.934692C38.1335 0.793335 38.5969 1.9032 38.7444 2.60034L44.5308 25.2207L49.9026 2.60034C49.9883 2.08313 50.3787 0.822266 51.9761 0.955566L54.7559 0.955566C55.1074 0.926636 56.5557 0.875244 56.8098 2.62122L62.2236 25.5306L68.1965 2.62122C68.2742 2.271 68.637 0.794922 70.2505 0.955566L73.4451 0.955566C73.5828 0.934692 74.4414 0.825439 74.2954 2.33362C74.2258 2.63086 74.8479 0.62146 65.7502 29.6233C65.564 30.5083 64.9695 31.4047 63.6963 31.2889L60.6687 31.2889C58.8965 31.4736 58.6421 29.7373 58.6145 29.5623L53.2429 7.53625L47.9326 29.5398C47.9067 29.7148 47.6523 31.4512 45.8787 31.2665L42.9141 31.2665L42.9141 31.2681ZM87.2161 32.1724C86.2637 32.174 81.7212 32.1241 77.9241 30.1984C77.5459 30.0396 77.2239 29.7729 76.9985 29.4324C76.7732 29.0918 76.655 28.6926 76.6589 28.2853L76.6589 26.5586C76.6589 25.2014 77.6633 25.4503 78.0894 25.6125C79.7158 26.2646 80.759 26.7594 82.7563 27.1545C88.6936 28.364 91.3049 26.7852 91.9448 26.4349C94.075 25.1805 94.2434 22.3102 92.7952 20.8213C91.0974 19.4094 90.2876 19.3563 84.1885 17.4482C83.4368 17.241 77.1094 15.2621 77.0947 9.03809C76.9958 4.50208 81.1528 0.0142822 88.3567 0.0512695C90.4089 0.0496826 95.8779 0.7146 97.3586 2.56018C97.5771 2.89587 97.6858 3.29102 97.6697 3.69092L97.6697 5.31482C97.6697 6.02795 97.4072 6.38452 96.8806 6.38452C95.6316 6.24646 93.4155 4.59045 88.917 4.65784C87.801 4.6001 82.4551 4.80408 82.6948 8.66858C82.6252 11.714 87.0056 12.856 87.5061 12.9877C93.4124 14.7498 95.3872 15.0421 97.7312 17.7389C100.508 21.3127 99.011 25.4969 98.4358 26.6438C95.345 32.6655 87.3523 32.1755 87.2161 32.1724ZM93.7283 49.0151C82.3838 57.3225 65.9155 61.7445 51.8545 61.7445C32.8818 61.8685 14.5486 54.9513 0.45874 42.3525C-0.599121 41.4065 0.333984 40.1104 1.62036 40.8315C17.2502 49.6964 34.9465 54.3544 52.9529 54.343C66.3994 54.2715 79.6995 51.5668 92.0889 46.3842C93.9973 45.5811 95.6155 47.6371 93.7283 49.0151ZM98.4568 43.6681C97.0054 41.8177 88.854 42.804 85.2041 43.236C84.1042 43.3597 83.918 42.4136 84.9143 41.715C91.4053 37.1902 102.066 38.4865 103.291 40.0076C104.514 41.5286 102.959 52.12 96.8823 57.1796C95.9492 57.9618 95.0566 57.5491 95.4714 56.521C96.8386 53.1078 99.9084 45.52 98.4568 43.6681Z" fill="#737373" fill-opacity="1.000000" fill-rule="nonzero"/>
</svg>
