<svg width="102.000000" height="74.842163" viewBox="0 0 102 74.8422" fill="none" xmlns="http://www.w3.org/2000/svg" xmlns:xlink="http://www.w3.org/1999/xlink">
	<desc>
			Created with Pixso.
	</desc>
	<defs/>
	<path id="Vector" d="M102 0C89.1226 8.6825 87.752 14.9838 86.6362 16.9115C85.5684 18.8877 84.7715 26.6793 82.9229 30.4536C81.0581 34.2765 74.2847 37.2894 72.3882 38.5529C70.5234 39.8164 67.8778 44.7246 65.7103 48.9525C48.4819 48.2397 39.0309 55.2375 24.4003 64.1145C29.0859 62.5432 31.3013 61.4093 31.3013 61.4093C46.3143 55.5778 53.5022 50.3456 76.1016 53.4396C76.2769 53.4396 76.4043 53.5367 76.5479 53.5691C77.1694 53.9255 77.3926 54.6868 77.042 55.3186L68.4515 70.8369C68.0531 71.5983 67.2085 72.0032 66.3638 71.8251C46.155 67.9697 30.2015 74.6274 15.5391 74.838C3.84094 75.0162 0 69.4115 0 69.1522C0 68.9741 0.0955811 68.877 0.270996 68.877C0.270996 68.877 6.375 68.8768 16.7025 66.3984C28.4325 43.6718 38.8875 35.7181 50.2668 35.7181C50.2668 35.7181 61.6941 35.7181 64.7063 45.7451C68.34 39.3142 69.2166 37.7754 69.2166 37.7754C70.0613 36.2527 74.7947 25.27 82.9866 14.8704C91.1943 4.5033 97.394 1.92761 102 0Z" fill="#737373" fill-opacity="1.000000" fill-rule="nonzero"/>
</svg>
