<svg width="102.986206" height="33.813721" viewBox="0 0 102.986 33.8137" fill="none" xmlns="http://www.w3.org/2000/svg" xmlns:xlink="http://www.w3.org/1999/xlink">
	<desc>
			Created with Pixso.
	</desc>
	<defs/>
	<path id="Vector" d="M23.2417 31.8829L29.4056 32.0106C27.2812 31.2764 25.2212 30.3824 23.2417 29.3289L23.2417 31.8829ZM32.5277 31.0369L32.5277 31.8829L29.4056 32.0106C35.2798 34.0059 40.6552 34.2772 44.6464 33.1599C41.4437 33.1918 37.2754 32.7449 32.5277 31.0369ZM98.3351 12.6482C100.894 12.6482 102.986 10.589 102.986 8.03503C102.986 5.48108 100.91 4.12427 98.3351 4.12427C95.7762 4.12427 93.684 5.49695 93.684 8.03503C93.684 10.573 95.7601 12.6482 98.3351 12.6482ZM93.668 31.8829L102.986 31.8829L102.986 14.2444L93.668 14.2444L93.668 31.8829ZM81.8069 31.8829L91.1251 31.8829L91.1251 0.708252L81.8069 5.06604L81.8069 31.8829ZM76.8177 12.8237C73.8887 9.91858 68.7065 10.0941 68.7065 10.0941C68.7065 10.0941 63.5082 9.91858 60.5952 12.8237C57.6663 15.7289 57.8915 18.235 57.8915 21.22C57.8915 24.205 57.6663 26.6951 60.5952 29.6002C63.5243 32.5054 68.7065 32.3298 68.7065 32.3298C68.7065 32.3298 73.9048 32.5054 76.8177 29.6002C79.7468 26.6951 79.5215 24.205 79.5215 21.22C79.5054 18.219 79.7307 15.7129 76.8177 12.8237ZM70.4125 24.3008C70.4125 24.8754 70.1228 26.296 68.6904 26.296C67.2581 26.296 66.9684 24.8754 66.9684 24.3008L66.9684 17.8519C66.9684 16.4631 68.1432 16.1121 68.6904 16.1121C69.2375 16.1121 70.4125 16.4473 70.4125 17.8519L70.4125 24.3008ZM53.3209 12.8237C50.3918 9.91858 45.2096 10.0941 45.2096 10.0941C45.2096 10.0941 40.0275 9.91858 37.0984 12.8237C36.7926 13.1271 36.5029 13.4463 36.2455 13.7815C30.0977 9.05664 24.5775 6.35901 19.8137 4.02844L19.8137 0.724243L16.1926 2.41626C7.43762 -1.11145 1.86914 -0.488892 0.533447 2.43225C0.533447 2.43225 -3.474 7.66785 10.4794 20.1185L10.4794 31.8829L19.7976 31.8829L19.7976 27.3176C18.7515 26.6472 17.7054 25.929 16.6754 25.1467C14.2936 23.359 12.2657 21.6989 10.4955 20.1345L10.4955 15.1862C12.6038 17.5327 15.4041 20.1984 19.0895 23.2153L19.8137 23.7899L19.8137 19.0331C19.8137 17.9318 20.0873 16.1279 21.5519 16.1279C23.0164 16.1279 23.2578 17.2294 23.2578 18.5223L23.2578 26.296C26.1547 28.2434 29.2607 29.8237 32.5438 31.0209L32.5438 16.0322C32.5438 13.0472 30.3873 10.0623 26.0098 10.0623C23.467 10.0463 21.1012 11.3712 19.8137 13.558L19.8137 4.89038C26.557 8.22656 33.3164 12.313 35.8914 14.1965C34.2498 16.527 34.3947 18.682 34.3947 21.1721C34.3947 24.1571 34.1693 26.6472 37.0984 29.5524C40.0275 32.4575 45.2096 32.282 45.2096 32.282C45.2096 32.282 50.408 32.4575 53.3209 29.5524C56.25 26.6472 56.0085 24.1571 56.0085 21.1721C56.0085 18.219 56.25 15.7129 53.3209 12.8237ZM10.4794 5.06604L10.4794 15.1702C2.64172 6.4707 4.21887 3.03882 4.81433 2.54395C6.98694 0.724243 10.8495 1.26697 15.1787 2.87915L10.4794 5.06604ZM46.9316 24.3008C46.9316 24.8754 46.642 26.296 45.2096 26.296C43.7773 26.296 43.4875 24.8754 43.4875 24.3008L43.4875 17.8519C43.4875 16.4631 44.6625 16.1121 45.2096 16.1121C45.7568 16.1121 46.9316 16.4473 46.9316 17.8519L46.9316 24.3008Z" fill="#737373" fill-opacity="1.000000" fill-rule="nonzero"/>
</svg>
