<svg width="83.000000" height="58.956665" viewBox="0 0 83 58.9567" fill="none" xmlns="http://www.w3.org/2000/svg" xmlns:xlink="http://www.w3.org/1999/xlink">
	<desc>
			Created with Pixso.
	</desc>
	<defs/>
	<path id="Vector" d="M0 0.977905L12.6121 0.977905L12.6121 34.9926C12.6121 40.3873 15.0437 43.598 17.0215 44.9346C14.9626 46.7437 8.72144 48.3409 4.02026 44.4781C1.2644 42.1964 0 38.3989 0 34.8622L0 0.977905ZM78.7689 29.2555L78.7689 25.6699L82.6272 25.6699L82.6272 13.1527L78.3961 13.1527C76.7588 5.60669 70.0961 0 62.1365 0C52.9612 0 45.4879 7.49719 45.4879 16.7384L45.4879 45.9451C48.0817 46.3198 51.2266 45.8961 53.8689 43.6632C56.641 41.3815 57.8893 37.6002 57.8893 34.0472L57.8893 32.9552L64.1791 32.9552L64.1791 20.4381L57.8893 20.4381L57.8893 16.6406C57.8893 11.0013 66.3513 11.0013 66.3513 16.6406L66.3513 29.2067C66.3513 38.4315 73.8083 45.9451 83 45.9451L83 33.4768C80.6494 33.4768 78.7689 31.5699 78.7689 29.2555ZM31.0602 13.1201L31.0602 31.5374C31.0602 34.0472 27.2019 34.0472 27.2019 31.5374L27.2019 13.1201L14.752 13.1201L14.752 34.748C14.752 38.6271 16.0488 43.5492 22.0469 45.1627C28.0449 46.7599 31.4817 43.4351 31.4817 43.4351C31.1412 45.619 29.1311 47.2325 25.824 47.5586C23.3113 47.8193 20.1178 46.9718 18.5291 46.2874L18.5291 57.745C22.598 58.9674 26.8777 59.3423 31.1088 58.511C38.7441 57.028 43.5588 50.6227 43.5588 42.0823L43.5588 13.0387L31.0602 13.0387L31.0602 13.1201Z" fill="#737373" fill-opacity="1.000000" fill-rule="nonzero"/>
</svg>
