<svg width="102.983887" height="41.984131" viewBox="0 0 102.984 41.9841" fill="none" xmlns="http://www.w3.org/2000/svg" xmlns:xlink="http://www.w3.org/1999/xlink">
	<desc>
			Created with Pixso.
	</desc>
	<defs/>
	<path id="Vector" d="M26.5386 3.29321L19.5701 4.75684L19.5378 27.4114C19.5378 31.5955 22.7244 34.3 26.957 34.3C29.3066 34.3 31.0288 33.8705 31.9783 33.3613L31.9783 27.9841C31.061 28.35 26.5547 29.6545 26.5547 25.4863L26.5547 15.4318L31.9783 15.4318L31.9783 9.41821L26.5547 9.41821L26.5386 3.29321ZM40.8782 11.5023L40.4436 9.41821L34.2637 9.41821L34.2637 33.7909L41.3931 33.7909L41.3931 17.3887C43.083 15.1932 45.9316 15.6227 46.8489 15.9091L46.8489 9.41821C45.8833 9.08411 42.5518 8.46362 40.8782 11.5023ZM55.7327 0L48.5549 1.51135L48.5549 7.27051L55.7327 5.75903L55.7327 0ZM7.20996 16.5931C7.20996 15.4955 8.14355 15.0659 9.64014 15.05C11.8127 15.05 14.5811 15.7023 16.7537 16.8636L16.7537 10.2136C14.3877 9.29089 12.022 8.92505 9.65625 8.92505C3.86255 8.92505 0 11.9159 0 16.9114C0 24.7386 10.8633 23.4659 10.8633 26.8386C10.8633 28.1432 9.7207 28.5728 8.12744 28.5728C5.76147 28.5728 2.70386 27.6023 0.305664 26.3136L0.305664 32.6772C2.96118 33.8068 5.64893 34.2841 8.11133 34.2841C14.0498 34.2841 18.1377 31.7705 18.1377 26.6796C18.1377 18.2637 7.20996 19.775 7.20996 16.5931ZM102.984 21.8909C102.984 14.6522 99.4434 8.94092 92.6516 8.94092C85.8601 8.94092 81.7241 14.6522 81.7241 21.8431C81.7241 30.3545 86.6006 34.2841 93.553 34.2841C96.9648 34.2841 99.5237 33.5205 101.471 32.4546L101.471 27.1409C99.5237 28.1113 97.2866 28.7 94.4543 28.7C91.6699 28.7 89.2239 27.7295 88.9019 24.4204L102.887 24.4204C102.919 24.0546 102.984 22.575 102.984 21.8909ZM88.8374 19.2181C88.8374 16.0364 90.8171 14.7 92.6035 14.7C94.3577 14.7 96.2246 16.0364 96.2246 19.2181L88.8374 19.2181ZM70.6677 8.94092C67.8674 8.94092 66.0649 10.2455 65.0671 11.1522L64.6968 9.40222L58.4043 9.40222L58.4043 41.9841L65.5498 40.4886L65.5659 32.5023C66.5959 33.25 68.1248 34.2841 70.6194 34.2841C75.7371 34.2841 80.4043 30.5931 80.4043 21.6205C80.4204 13.4114 75.689 8.94092 70.6677 8.94092ZM68.9617 28.4296C67.2881 28.4296 66.2903 27.825 65.5981 27.0931L65.5498 16.5931C66.2903 15.7819 67.3201 15.1932 68.9617 15.1932C71.5688 15.1932 73.3713 18.0886 73.3713 21.7795C73.3875 25.5818 71.6172 28.4296 68.9617 28.4296ZM48.571 33.7909L55.7488 33.7909L55.7488 9.41821L48.571 9.41821L48.571 33.7909Z" fill="#737373" fill-opacity="1.000000" fill-rule="nonzero"/>
</svg>
